<svg xmlns="http://www.w3.org/2000/svg" version="1.1" xmlns:xlink="http://www.w3.org/1999/xlink" width="512" height="512" x="0" y="0" viewBox="0 0 24 24" style="enable-background:new 0 0 512 512" xml:space="preserve" class=""><g><path d="M21.307 5.06a.997.997 0 0 0-.902-.122c-.099.035-1.887.68-3.147 2.288-1.029-1.832-2.283-3.34-4.774-4.713a.995.995 0 0 0-.964 0c-2.485 1.365-3.713 2.834-4.767 4.71C5.492 5.607 3.69 4.971 3.59 4.937a1 1 0 0 0-.896.125C1.1 6.171 1.001 12.337 1.001 12.398c0 5.251 1.197 7.099 1.333 7.292a.998.998 0 0 0 .473.362c.173.064 4.307 1.562 9.194 1.562s9.02-1.498 9.193-1.562c.195-.071.362-.202.48-.372.136-.198 1.326-2.079 1.326-7.282 0-.062-.1-6.228-1.693-7.336Z" fill="#ffad27" opacity="1" data-original="#000000" class=""></path></g></svg>
